<svg width="19" height="15" viewBox="0 0 19 15" fill="none" xmlns="http://www.w3.org/2000/svg">
<g clip-path="url(#clip0_338:91)">
<path d="M18.447 10.0663L15.4972 13.016C15.2226 13.2906 14.7774 13.2906 14.5028 13.016L11.553 10.0663C11.2784 9.79166 11.2784 9.34647 11.553 9.0719L11.8701 8.75482C12.1502 8.47468 12.6064 8.48118 12.8785 8.76923L14.0625 10.0229V4.68741H8.5679C8.38142 4.6874 8.20258 4.61333 8.0707 4.48149L7.60195 4.01274C7.15901 3.56977 7.47272 2.81241 8.09915 2.81241H15.2344C15.6227 2.81241 15.9375 3.12721 15.9375 3.51554V10.0229L17.1216 8.76923C17.3936 8.48121 17.8498 8.47468 18.1299 8.75482L18.447 9.0719C18.7216 9.34647 18.7216 9.79169 18.447 10.0663V10.0663ZM10.6793 10.5183C10.614 10.453 10.5365 10.4013 10.4512 10.3659C10.3658 10.3306 10.2744 10.3124 10.1821 10.3124H4.6875V4.9769L5.87156 6.23057C6.14361 6.51859 6.59977 6.52512 6.87993 6.24495L7.19698 5.9279C7.47158 5.6533 7.47158 5.20811 7.19698 4.93354L4.2472 1.98378C3.9726 1.70918 3.5274 1.70918 3.25283 1.98378L0.303018 4.93357C0.0284189 5.20817 0.0284189 5.65336 0.303018 5.92793L0.620069 6.24498C0.900206 6.52512 1.35639 6.51862 1.62844 6.2306L2.8125 4.9769V11.4843C2.8125 11.8726 3.1273 12.1874 3.51563 12.1874H10.6508C11.2773 12.1874 11.591 11.4301 11.148 10.9871L10.6793 10.5183V10.5183Z" fill="#9CA3AF"/>
</g>
<defs>
<clipPath id="clip0_338:91">
<rect width="18.75" height="15" fill="white"/>
</clipPath>
</defs>
</svg>
